<svg xmlns="http://www.w3.org/2000/svg" viewBox="0 0 32 32">
  <rect x="2" y="6" width="28" height="20" rx="3" fill="#3c6e71"/>
  <path d="M2 12h4a3 3 0 0 0 0-6v6zm0 0v8a3 3 0 0 0 3 3h1" fill="#2d5557"/>
  <path d="M30 12h-4a3 3 0 0 1 0-6v6zm0 8v-8a3 3 0 0 1-3-3h-1" fill="#2d5557"/>
  <rect x="6" y="10" width="8" height="2" rx="1" fill="#ffffff" opacity="0.9"/>
  <rect x="6" y="14" width="12" height="2" rx="1" fill="#ffffff" opacity="0.6"/>
  <rect x="6" y="18" width="6" height="2" rx="1" fill="#ffffff" opacity="0.4"/>
</svg>
